<svg xmlns="http://www.w3.org/2000/svg" version="1.0" viewBox="0 0 500 500"><path fill="#4080BF" fill-opacity=".2" d="M308.2 117c0 1.4.2 1.9.5 1.2.2-.6.2-1.8 0-2.5-.3-.6-.5-.1-.5 1.3M66.1 249.6c0 1.1.3 1.4.6.6.3-.7.2-1.6-.1-1.9-.3-.4-.6.2-.5 1.3m367 0c0 1.1.3 1.4.6.6.3-.7.2-1.6-.1-1.9-.3-.4-.6.2-.5 1.3M158.5 302c2.1 2.2 4.1 4 4.4 4s-1.3-1.8-3.4-4-4.1-4-4.4-4 1.3 1.8 3.4 4m32.6 81.6c0 1.1.3 1.4.6.6.3-.7.2-1.6-.1-1.9-.3-.4-.6.2-.5 1.3"/><path fill="#4080BF" fill-opacity=".7" d="m109.5 200.2-29 29.3 29.3-29c16-15.9 29.2-29.1 29.2-29.2 0-.8-2.6 1.8-29.5 28.9m273.5-6.7c12.4 12.4 22.7 22.5 23 22.5s-9.6-10.1-22-22.5-22.7-22.5-23-22.5 9.6 10.1 22 22.5m-273 107c15.7 15.7 28.7 28.5 29 28.5s-12.3-12.8-28-28.5S82.3 272 82 272s12.3 12.8 28 28.5m276 3.2-25.5 25.8 25.8-25.5c23.9-23.7 26.2-26 25.4-26-.1 0-11.7 11.6-25.7 25.7"/><path fill="#4080BF" fill-opacity=".9" d="M358.5 215c12.6 12.6 23.2 23 23.5 23s-9.9-10.4-22.5-23c-12.6-12.7-23.2-23-23.5-23s9.9 10.3 22.5 23m-218.5.7-22.5 22.8 22.8-22.5c21.1-20.9 23.2-23 22.4-23-.1 0-10.3 10.2-22.7 22.7m-25.6 25.5-1.9 2.3 2.3-1.9c2.1-1.8 2.7-2.6 1.9-2.6-.2 0-1.2 1-2.3 2.2m270.1-.2c1 1.1 2 2 2.3 2s-.3-.9-1.3-2-2-2-2.3-2 .3.9 1.3 2m-275.6 5.7-2.4 2.8 2.8-2.4c2.5-2.3 3.2-3.1 2.4-3.1-.2 0-1.4 1.2-2.8 2.7m281.6 0 2.9 3.3-2.9 3.2-3 3.3 3.5-3.3 3.5-3.2-3.5-3.3-3.5-3.2zM106 250.3c0 .2 1.5 1.6 3.3 3.3l3.2 2.9-2.9-3.3c-2.8-3-3.6-3.7-3.6-2.9m8.5 8.7c1 1.1 2 2 2.3 2s-.3-.9-1.3-2-2-2-2.3-2 .3.9 1.3 2m269.9.2-1.9 2.3 2.3-1.9c2.1-1.8 2.7-2.6 1.9-2.6-.2 0-1.2 1-2.3 2.2M140 284.5c12.4 12.4 22.7 22.5 23 22.5s-9.6-10.1-22-22.5-22.7-22.5-23-22.5 9.6 10.1 22 22.5m219 .2-22.5 22.8 22.8-22.5c21.1-20.9 23.2-23 22.4-23-.1 0-10.3 10.2-22.7 22.7"/><path fill="#4080BF" d="M287.3 101.2c-4.7 1.2-10 7-11.6 12.5-.8 2.7-20 64.1-42.7 136.6-44.2 141.5-42.4 134.8-37.7 141.8 6.1 9 19.6 9.4 25.8.8 1.1-1.6 21.1-64.1 44.5-139 33.8-108.1 42.5-136.8 42-139.4-1.8-9.4-11.5-15.8-20.3-13.3m-143.8 67.7c-2.6 1.2-16.5 14.5-39.6 37.7-38.5 38.8-38 38.1-36.3 47.1.6 3.3 5.3 8.5 36.7 40 38.3 38.5 40.5 40.3 47.9 38.9 10.3-1.9 16.5-12.8 12.5-21.8-.7-1.6-14.2-15.8-30.1-31.8l-28.9-29 28.8-29c15.9-16 29.5-30 30.2-31.3 3.2-5.8.1-15.8-6.2-19.7-5-3.1-10.1-3.5-15-1.1m199.5.3c-7.5 3.8-11.3 14-7.7 20.6.7 1.2 14.3 15.3 30.2 31.2l28.9 29-29 29c-15.9 16-29.4 30.2-30.1 31.8-4 9 2.2 19.9 12.5 21.8 7.4 1.4 9.6-.4 47.9-38.9 33.5-33.6 36.1-36.5 36.8-40.4 1.4-8.5.9-9.2-36.9-47.1-34.7-34.9-39.8-39.2-45.7-39.2-1.4 0-4.5 1-6.9 2.2"/><path fill="#4080BF" fill-opacity=".6" d="M417 227.5c6.3 6.3 11.7 11.5 12 11.5.2 0-4.7-5.2-11-11.5S406.3 216 406 216c-.2 0 4.7 5.2 11 11.5m-341.5 6.7-5 5.3 5.3-5c4.8-4.6 5.7-5.5 4.9-5.5-.1 0-2.5 2.4-5.2 5.2m.5 32.3c3 3 5.7 5.5 5.9 5.5.3 0-1.9-2.5-4.9-5.5s-5.7-5.5-5.9-5.5c-.3 0 1.9 2.5 4.9 5.5m344 3.2-8.5 8.8 8.8-8.5c4.8-4.6 8.7-8.6 8.7-8.7 0-.8-1.1.3-9 8.4"/><path fill="#4080BF" fill-opacity=".1" d="M302 103.4c0 .2.8 1 1.8 1.7 1.5 1.3 1.6 1.2.3-.4s-2.1-2.1-2.1-1.3m-107 291c0 .2.8 1 1.8 1.7 1.5 1.3 1.6 1.2.3-.4s-2.1-2.1-2.1-1.3"/><path fill="#4080BF" fill-opacity=".3" d="M134 222.5 106.5 250l24.5 24.3 24.5 24.2-24-24.3-24-24.2 27.5-27.5c15.1-15.1 27.3-27.5 27-27.5s-12.9 12.4-28 27.5m231-.3 27.5 27.8-27.5 27.7-27.5 27.8 28-27.8 28-27.7-28-27.8-28-27.7z"/></svg>